<svg id="visual" viewBox="0 0 900 600" width="900" height="600" xmlns="http://www.w3.org/2000/svg" xmlns:xlink="http://www.w3.org/1999/xlink" version="1.1"><path d="M0 145L82 61L164 79L245 79L327 73L409 79L491 67L573 79L655 115L736 139L818 91L900 157L900 0L818 0L736 0L655 0L573 0L491 0L409 0L327 0L245 0L164 0L82 0L0 0Z" fill="#0080cc"></path><path d="M0 367L82 313L164 235L245 223L327 265L409 265L491 181L573 205L655 247L736 241L818 319L900 367L900 155L818 89L736 137L655 113L573 77L491 65L409 77L327 71L245 77L164 77L82 59L0 143Z" fill="#066ebc"></path><path d="M0 409L82 373L164 307L245 307L327 301L409 307L491 259L573 247L655 301L736 295L818 373L900 445L900 365L818 317L736 239L655 245L573 203L491 179L409 263L327 263L245 221L164 233L82 311L0 365Z" fill="#105dac"></path><path d="M0 469L82 415L164 433L245 427L327 373L409 427L491 355L573 307L655 403L736 337L818 421L900 499L900 443L818 371L736 293L655 299L573 245L491 257L409 305L327 299L245 305L164 305L82 371L0 407Z" fill="#184b9b"></path><path d="M0 601L82 601L164 601L245 601L327 601L409 601L491 601L573 601L655 601L736 601L818 601L900 601L900 497L818 419L736 335L655 401L573 305L491 353L409 425L327 371L245 425L164 431L82 413L0 467Z" fill="#1e3a8a"></path></svg>