<svg width="1920" height="1080" viewBox="0 0 1920 1080" xmlns="http://www.w3.org/2000/svg"><rect width="1920" height="1080" fill="#a3a0ff"/><path d="M 0,1080 C 0,1080 0,180 0,180 C 21.398054402706904,153.16380290253508 42.79610880541381,126.32760580507016 127,129 C 211.2038911945862,131.67239419492984 358.2136191810516,163.85337968225437 439,189 C 519.7863808189484,214.14662031774563 534.3494144703798,232.25887546591244 571,230 C 607.6505855296202,227.74112453408756 666.3887229374291,205.11111845409607 737,198 C 807.6112770625709,190.88888154590393 890.0956937799044,199.29665071770336 957,202 C 1023.9043062200956,204.70334928229664 1075.2285019429537,201.70227867509053 1149,210 C 1222.7714980570463,218.29772132490947 1318.9902984482803,237.8942345819345 1393,232 C 1467.0097015517197,226.1057654180655 1518.8103042639245,194.72078299717148 1555,175 C 1591.1896957360755,155.27921700282852 1611.7684844960215,147.22263342937958 1670,150 C 1728.2315155039785,152.77736657062042 1824.1157577519893,166.3886832853102 1920,180 C 1920,180 1920,1080 1920,1080 Z" fill="#5250ff" opacity="0.09999999999999999"/><path d="M 0,1080 C 0,1080 0,360 0,360 C 57.66515107457241,383.2637130243993 115.33030214914481,406.52742604879853 188,395 C 260.6696978508552,383.47257395120147 348.3439424779931,337.1540088292051 410,342 C 471.6560575220069,346.8459911707949 507.29392793888303,402.856538634381 581,402 C 654.706072061117,401.143461365619 766.4803457664754,343.41983663327073 837,342 C 907.5196542335246,340.58016336672927 936.7846889952154,395.4641148325358 977,395 C 1017.2153110047846,394.5358851674642 1068.3808982526632,338.7237040365857 1133,313 C 1197.6191017473368,287.2762959634143 1275.6917179941317,291.6410690211213 1342,322 C 1408.3082820058683,352.3589309788787 1462.8522297708107,408.71201987892886 1537,425 C 1611.1477702291893,441.28798012107114 1704.8993629226256,417.5108514631632 1772,400 C 1839.1006370773744,382.4891485368368 1879.5503185386872,371.24457426841843 1920,360 C 1920,360 1920,1080 1920,1080 Z" fill="#5250ff" opacity="0.19999999999999998"/><path d="M 0,1080 C 0,1080 0,540 0,540 C 58.85047186021305,542.5070052076449 117.7009437204261,545.0140104152898 186,535 C 254.2990562795739,524.9859895847102 332.0466969785086,502.4509635464856 407,520 C 481.9533030214914,537.5490364535144 554.1122683655396,595.1821353987681 594,585 C 633.8877316344604,574.8178646012319 641.5042295593329,496.8204948584419 696,474 C 750.4957704406671,451.1795051415581 851.8708133971289,483.53588516746413 930,503 C 1008.1291866028711,522.4641148325359 1063.0125168521506,529.0359644717016 1129,537 C 1194.9874831478494,544.9640355282984 1272.0791191942692,554.3202569457295 1322,567 C 1371.9208808057308,579.6797430542705 1394.6710063707737,595.6830077453806 1468,585 C 1541.3289936292263,574.3169922546194 1665.2368553226358,536.9477120727483 1749,525 C 1832.7631446773642,513.0522879272517 1876.381572338682,526.5261439636258 1920,540 C 1920,540 1920,1080 1920,1080 Z" fill="#5250ff" opacity="0.3"/><path d="M 0,1080 C 0,1080 0,720 0,720 C 69.98086124401915,736.6113828015543 139.9617224880383,753.2227656031088 190,753 C 240.0382775119617,752.7772343968912 270.133971291866,735.7203203891195 331,727 C 391.866028708134,718.2796796108805 483.5023923444977,717.8959528404134 552,735 C 620.4976076555023,752.1040471595866 665.8564593301435,786.6958682492269 719,770 C 772.1435406698565,753.3041317507731 833.0717703349281,685.3205741626793 920,652 C 1006.9282296650719,618.6794258373207 1119.8564593301435,620.0218351000556 1187,662 C 1254.1435406698565,703.9781648999444 1275.5023923444976,786.5920854370985 1320,778 C 1364.4976076555024,769.4079145629015 1432.133971291866,669.6098231515504 1511,661 C 1589.866028708134,652.3901768484496 1679.961722488038,734.9686219567 1750,760 C 1820.038277511962,785.0313780433 1870.019138755981,752.51568902165 1920,720 C 1920,720 1920,1080 1920,1080 Z" fill="#5250ff" opacity="0.39999999999999997"/><path d="M 0,1080 C 0,1080 0,900 0,900 C 81.03772238229928,883.0442121124006 162.07544476459856,866.0884242248011 223,863 C 283.92455523540144,859.9115757751989 324.735943323905,870.6905152131961 372,870 C 419.264056676095,869.3094847868039 472.98078193978165,857.149514922414 543,852 C 613.0192180602183,846.850485077586 699.3409289169684,848.7114250971475 791,865 C 882.6590710830316,881.2885749028525 979.6555023923445,912.0047846889952 1025,930 C 1070.3444976076555,947.9952153110048 1064.0370615136535,953.2694361468716 1122,934 C 1179.9629384863465,914.7305638531284 1302.1962515530413,870.9174707235189 1367,859 C 1431.8037484469587,847.0825292764811 1439.177932274181,867.0606809590527 1496,876 C 1552.822067725819,884.9393190409473 1659.0920193502338,882.8398054402705 1738,885 C 1816.9079806497662,887.1601945597295 1868.453990324883,893.5800972798647 1920,900 C 1920,900 1920,1080 1920,1080 Z" fill="#5250ff" opacity="0.49999999999999994"/></svg>