<svg width="1920" height="1080" viewBox="0 0 1920 1080" xmlns="http://www.w3.org/2000/svg"><rect width="1920" height="1080" fill="#a3a0ff"/><path d="M 0,1080 C 0,1080 0,180 0,180 C 53.363001929736456,155.80693383383118 106.72600385947291,131.61386766766236 176,118 C 245.2739961405271,104.38613233233764 330.4589864918449,101.3514631631817 381,121 C 431.5410135081551,140.6485368368183 447.43805017314753,182.98027967961087 514,203 C 580.5619498268525,223.01972032038913 697.7888128155649,220.7274181183748 792,207 C 886.2111871844351,193.2725818816252 957.4066985645934,168.11004784688993 1015,175 C 1072.5933014354066,181.88995215311007 1116.584392926062,220.83239049406544 1175,212 C 1233.415607073938,203.16760950593456 1306.2557297311585,146.56039017684844 1360,135 C 1413.7442702688415,123.43960982315157 1448.3926881493032,156.92604879854082 1515,157 C 1581.6073118506968,157.07395120145918 1680.173517671628,123.73541462898834 1753,122 C 1825.826482328372,120.26458537101166 1872.913241164186,150.13229268550583 1920,180 C 1920,180 1920,1080 1920,1080 Z" fill="#ffffff" opacity="0.09999999999999999"/><path d="M 0,1080 C 0,1080 0,360 0,360 C 73.68021887969547,375.1122815829126 147.36043775939095,390.2245631658252 205,388 C 262.63956224060905,385.7754368341748 304.2384678421317,366.2140289196119 353,362 C 401.7615321578683,357.7859710803881 457.6856908720823,368.91932115572706 524,370 C 590.3143091279177,371.08067884427294 667.0187686695392,362.10868645747973 735,376 C 802.9812313304608,389.89131354252027 862.2392344497607,426.64593301435406 949,403 C 1035.7607655502393,379.35406698564594 1150.0242935314177,295.30758148510404 1206,304 C 1261.9757064685823,312.69241851489596 1259.6635914245685,414.12374104522985 1325,424 C 1390.3364085754315,433.87625895477015 1523.3213407703083,352.19745433397657 1598,317 C 1672.6786592296917,281.80254566602343 1689.0510454941975,293.08644161886383 1733,308 C 1776.9489545058025,322.91355838113617 1848.4744772529011,341.4567791905681 1920,360 C 1920,360 1920,1080 1920,1080 Z" fill="#ffffff" opacity="0.19999999999999998"/><path d="M 0,1080 C 0,1080 0,540 0,540 C 49.47754368341748,524.94481746808 98.95508736683496,509.88963493616 166,502 C 233.04491263316504,494.11036506384 317.6571942160776,493.3862777234398 404,494 C 490.3428057839224,494.6137222765602 578.4161357688546,496.5652541700811 639,502 C 699.5838642311454,507.4347458299189 732.6782627085041,516.3527055962356 788,522 C 843.3217372914959,527.6472944037644 920.8708133971293,530.0239234449762 996,539 C 1071.1291866028707,547.9760765550238 1143.8384837029791,563.55160062386 1206,553 C 1268.1615162970209,542.44839937614 1319.775251790954,505.76967405958396 1370,515 C 1420.224748209046,524.230325940416 1469.0605091332047,579.3697031378043 1532,572 C 1594.9394908667953,564.6302968621957 1671.9827116762274,494.75151338919875 1739,479 C 1806.0172883237726,463.24848661080125 1863.0086441618864,501.6242433054006 1920,540 C 1920,540 1920,1080 1920,1080 Z" fill="#ffffff" opacity="0.3"/><path d="M 0,1080 C 0,1080 0,720 0,720 C 75.9105051679928,743.2811731740198 151.8210103359856,766.5623463480398 206,765 C 260.1789896640144,763.4376536519602 292.6264638240504,737.0317877818605 373,729 C 453.3735361759496,720.9682122181395 581.6731343678131,731.3105025245183 646,730 C 710.3268656321869,728.6894974754817 710.6809987046976,715.7262021200667 768,728 C 825.3190012953024,740.2737978799333 939.6028708133972,777.7846889952152 1011,779 C 1082.3971291866028,780.2153110047848 1110.9075180417137,745.1350418990721 1155,722 C 1199.0924819582863,698.8649581009279 1258.7670570197467,687.6751434084961 1333,706 C 1407.2329429802533,724.3248565915039 1496.0242538792988,772.1643844669433 1565,760 C 1633.9757461207012,747.8356155330567 1683.1359274630574,675.6673187237304 1739,659 C 1794.8640725369426,642.3326812762696 1857.4320362684712,681.1663406381348 1920,720 C 1920,720 1920,1080 1920,1080 Z" fill="#ffffff" opacity="0.39999999999999997"/><path d="M 0,1080 C 0,1080 0,900 0,900 C 97.39102276031619,881.5089217267176 194.78204552063238,863.0178434534353 245,867 C 295.2179544793676,870.9821565465647 298.2628406777868,897.4375479129768 348,887 C 397.7371593222132,876.5624520870232 494.1665917682202,829.2319648946575 561,841 C 627.8334082317798,852.7680351053425 665.0707922493324,923.634592508393 713,951 C 760.9292077506676,978.365407491607 819.5502392344499,962.2296650717703 904,954 C 988.4497607655501,945.7703349282297 1098.7282508128683,945.4467472045256 1177,940 C 1255.2717491871317,934.5532527954744 1301.5367575140765,923.9833461101271 1345,911 C 1388.4632424859235,898.0166538898729 1429.1247191308255,882.6198683549658 1492,890 C 1554.8752808691745,897.3801316450342 1639.9643659626213,927.5371804700097 1715,933 C 1790.0356340373787,938.4628195299903 1855.0178170186894,919.2314097649951 1920,900 C 1920,900 1920,1080 1920,1080 Z" fill="#ffffff" opacity="0.49999999999999994"/></svg>