<svg width="1920" height="1080" viewBox="0 0 1920 1080" xmlns="http://www.w3.org/2000/svg"><rect width="1920" height="1080" fill="#3638c9"/><path d="M 0,1080 C 0,1080 0,180 0,180 C 75.5866002273388,208.60254037907424 151.1732004546776,237.2050807581485 211,219 C 270.8267995453224,200.7949192418515 314.8937984086283,135.78221734648022 393,131 C 471.1062015913717,126.21778265351978 583.2516059108092,181.66604985593065 643,193 C 702.7483940891908,204.33395014406935 710.099777948135,171.55358322979725 738,169 C 765.900222051865,166.44641677020275 814.3492822966506,194.1196172248804 911,181 C 1007.6507177033494,167.8803827751196 1152.5030928652623,113.96794787068123 1215,113 C 1277.4969071347377,112.03205212931877 1257.638346242301,164.00859129239475 1303,185 C 1348.361653757699,205.99140870760525 1458.9435221655344,195.99768695973984 1551,189 C 1643.0564778344656,182.00231304026016 1716.5875650955616,178.00066086864575 1775,177 C 1833.4124349044384,175.99933913135425 1876.7062174522193,177.99966956567712 1920,180 C 1920,180 1920,1080 1920,1080 Z" fill="#5250ff" opacity="0.09999999999999999"/><path d="M 0,1080 C 0,1080 0,360 0,360 C 106.6667107245764,333.36695392423803 213.3334214491528,306.733907848476 256,325 C 298.6665785508472,343.266092151524 277.33302492796525,406.4313225303339 346,425 C 414.66697507203475,443.5686774696661 573.334478838986,417.54080203018844 640,400 C 706.665521161014,382.45919796981156 681.3290597160907,373.40546934891216 712,367 C 742.6709402839093,360.59453065108784 829.3492822966508,356.8373205741627 897,344 C 964.6507177033492,331.1626794258373 1013.2738110973062,309.24524835443697 1097,304 C 1180.7261889026938,298.75475164556303 1299.5554733141241,310.1816860080891 1372,329 C 1444.4445266858759,347.8183139919109 1470.5042956461975,374.02800761320674 1533,378 C 1595.4957043538025,381.97199238679326 1694.4273441010864,363.70628353908376 1765,357 C 1835.5726558989136,350.29371646091624 1877.7863279494568,355.1468582304581 1920,360 C 1920,360 1920,1080 1920,1080 Z" fill="#5250ff" opacity="0.19999999999999998"/><path d="M 0,1080 C 0,1080 0,540 0,540 C 38.636244680007394,516.8280155436305 77.27248936001479,493.6560310872611 155,507 C 232.7275106399852,520.3439689127389 349.54628723994824,570.2038911945862 409,561 C 468.45371276005176,551.7961088054138 470.54236168019236,483.5284041343943 510,487 C 549.4576383198076,490.4715958656057 626.284266039282,565.6824922678368 716,569 C 805.715733960718,572.3175077321632 908.3205741626793,503.7416267942585 980,506 C 1051.6794258373207,508.2583732057415 1092.4334373100005,581.3510005551295 1140,603 C 1187.5665626899995,624.6489994448705 1241.9456765973196,594.8543709852231 1302,572 C 1362.0543234026804,549.1456290147769 1427.7838563007217,533.2315155039784 1514,535 C 1600.2161436992783,536.7684844960216 1706.9188981997936,556.2195669988633 1778,560 C 1849.0811018002064,563.7804330011367 1884.5405509001032,551.8902165005684 1920,540 C 1920,540 1920,1080 1920,1080 Z" fill="#5250ff" opacity="0.3"/><path d="M 0,1080 C 0,1080 0,720 0,720 C 82.46843691347908,749.2412038383251 164.93687382695816,778.4824076766502 228,786 C 291.06312617304184,793.5175923233498 334.72094160564643,779.3115731317242 400,759 C 465.27905839435357,738.6884268682758 552.179359750456,712.2712997964525 618,720 C 683.820640249544,727.7287002035475 728.5616193925295,769.6032276824658 793,757 C 857.4383806074705,744.3967723175342 941.5741626794259,677.3157894736843 1015,667 C 1088.4258373205741,656.6842105263157 1151.1417298897672,703.1336144227973 1209,709 C 1266.8582701102328,714.8663855772027 1319.8589177615058,680.1497528351264 1388,692 C 1456.1410822384942,703.8502471648736 1539.4225990642099,762.2673742366967 1586,784 C 1632.5774009357901,805.7326257633033 1642.4506859816545,790.7807502180866 1692,774 C 1741.5493140183455,757.2192497819134 1830.7746570091726,738.6096248909566 1920,720 C 1920,720 1920,1080 1920,1080 Z" fill="#5250ff" opacity="0.39999999999999997"/><path d="M 0,1080 C 0,1080 0,900 0,900 C 101.34288508815987,867.3090882656163 202.68577017631975,834.6181765312327 262,840 C 321.31422982368025,845.3818234687673 338.5998043828808,888.8363821406857 392,920 C 445.4001956171192,951.1636178593143 534.9150122921568,970.0362949060245 618,959 C 701.0849877078432,947.9637050939755 777.7401464484918,907.0184382352163 839,885 C 900.2598535515082,862.9815617647837 946.1244019138755,859.88995215311 997,860 C 1047.8755980861245,860.11004784689 1103.7622458960057,863.4217531523435 1149,872 C 1194.2377541039943,880.5782468476565 1228.8266145021018,894.4230352375162 1311,906 C 1393.1733854978982,917.5769647624838 1522.9312960955879,926.8861058975918 1581,909 C 1639.0687039044121,891.1138941024082 1625.4482011155465,846.0325411721166 1670,840 C 1714.5517988844535,833.9674588278834 1817.2758994422268,866.9837294139418 1920,900 C 1920,900 1920,1080 1920,1080 Z" fill="#5250ff" opacity="0.49999999999999994"/></svg>